<svg width="140" height="92" viewBox="0 0 140 92" fill="none" xmlns="http://www.w3.org/2000/svg">
<path d="M69.861 90C100.594 90 137.807 78.4392 137.807 56.3529C137.807 -0.779987 137.73 45.9521 69.861 45.9521C1.99174 45.9521 1.9917 0.41827 1.9917 56.3529C1.9917 78.4392 39.0514 90 69.861 90Z" fill="#FF5E3B" stroke="black" stroke-width="3.35512" stroke-linecap="round" stroke-linejoin="round"/>
<path d="M70.0622 69.2941C100.795 69.2941 138.008 57.7333 138.008 35.647C138.008 13.5608 100.948 1.99998 70.0622 1.99998C42.3057 1.99998 2.19287 12.1085 2.19287 35.647C2.19287 57.7333 39.2526 69.2941 70.0622 69.2941Z" fill="black" stroke="black" stroke-width="3.35512" stroke-linecap="round" stroke-linejoin="round"/>
<path d="M4.61368 34.6213C4.61368 14.3516 44.4246 4.34377 69.7557 4.34377C78.8865 4.34377 87.7679 5.25444 96.0743 6.98952C112.855 10.5459 134.979 20.3908 134.979 34.6213C134.979 37.4348 134.241 39.9991 132.76 42.4819C127.004 25.7686 91.1422 20.2279 70.0817 20.2279C44.4198 20.2279 11.8464 27.2592 7.24026 43.2248C5.51477 40.5791 4.60889 37.7656 4.60889 34.6213H4.61368Z" fill="#FF5E3B"/>
<mask id="mask0_17_1125" style="mask-type:luminance" maskUnits="userSpaceOnUse" x="4" y="4" width="132" height="63">
<path d="M70.0671 66.7011C99.621 66.7011 135.396 56.0126 135.396 35.5895C135.396 15.1664 99.76 4.47797 70.0671 4.47797C43.3748 4.47797 4.81006 13.8244 4.81006 35.5895C4.81006 56.0126 40.4462 66.7011 70.0671 66.7011Z" fill="white"/>
</mask>
<g mask="url(#mask0_17_1125)">
<path d="M90.7106 73.9913C102.093 73.9913 111.321 64.7638 111.321 53.3812C111.321 41.9986 102.093 32.7712 90.7106 32.7712C79.328 32.7712 70.1006 41.9986 70.1006 53.3812C70.1006 64.7638 79.328 73.9913 90.7106 73.9913Z" fill="white" stroke="black" stroke-width="2.87582" stroke-linecap="round" stroke-linejoin="round"/>
<path d="M95.0244 62.488C98.4657 62.488 101.255 59.6983 101.255 56.2571C101.255 52.8158 98.4657 50.0261 95.0244 50.0261C91.5832 50.0261 88.7935 52.8158 88.7935 56.2571C88.7935 59.6983 91.5832 62.488 95.0244 62.488Z" fill="black"/>
<path d="M49.4909 73.9913C60.8735 73.9913 70.1009 64.7638 70.1009 53.3812C70.1009 41.9986 60.8735 32.7712 49.4909 32.7712C38.1083 32.7712 28.8809 41.9986 28.8809 53.3812C28.8809 64.7638 38.1083 73.9913 49.4909 73.9913Z" fill="white" stroke="black" stroke-width="2.87582" stroke-linecap="round" stroke-linejoin="round"/>
<path d="M55.9613 62.488C59.5349 62.488 62.4319 59.6983 62.4319 56.257C62.4319 52.8158 59.5349 50.0261 55.9613 50.0261C52.3877 50.0261 49.4907 52.8158 49.4907 56.257C49.4907 59.6983 52.3877 62.488 55.9613 62.488Z" fill="black"/>
</g>
</svg>
