<svg width="39" height="26" viewBox="0 0 39 26" fill="none" xmlns="http://www.w3.org/2000/svg">
<path d="M19.5098 25C27.8915 25 38.0405 21.847 38.0405 15.8235C38.0405 0.241827 38.0196 12.9869 19.5098 12.9869C1.00001 12.9869 1 0.568624 1 15.8235C1 21.847 11.1072 25 19.5098 25Z" fill="white" stroke="black" stroke-width="0.915032" stroke-linecap="round" stroke-linejoin="round"/>
<path d="M19.5645 19.3529C27.9462 19.3529 38.0952 16.2 38.0952 10.1765C38.0952 4.15294 27.988 1 19.5645 1C11.9946 1 1.05469 3.75686 1.05469 10.1765C1.05469 16.2 11.1619 19.3529 19.5645 19.3529Z" fill="black" stroke="black" stroke-width="0.915032" stroke-linecap="round" stroke-linejoin="round"/>
<path d="M1.71517 9.89673C1.71517 4.36862 12.5727 1.63921 19.4812 1.63921C21.9714 1.63921 24.3936 1.88758 26.659 2.36078C31.2354 3.33072 37.2694 6.01568 37.2694 9.89673C37.2694 10.664 37.0681 11.3634 36.6642 12.0405C35.0942 7.48235 25.3139 5.97124 19.5701 5.97124C12.5714 5.97124 3.68772 7.88888 2.43151 12.2431C1.96093 11.5216 1.71387 10.7542 1.71387 9.89673H1.71517Z" fill="white"/>
<mask id="mask0_12_786" style="mask-type:luminance" maskUnits="userSpaceOnUse" x="1" y="1" width="37" height="18">
<path d="M19.5659 18.6457C27.6261 18.6457 37.3829 15.7307 37.3829 10.1608C37.3829 4.59084 27.664 1.67581 19.5659 1.67581C12.2862 1.67581 1.76855 4.22483 1.76855 10.1608C1.76855 15.7307 11.4875 18.6457 19.5659 18.6457Z" fill="white"/>
</mask>
<g mask="url(#mask0_12_786)">
<path d="M25.1961 20.634C28.3005 20.634 30.817 18.1174 30.817 15.0131C30.817 11.9087 28.3005 9.39215 25.1961 9.39215C22.0918 9.39215 19.5752 11.9087 19.5752 15.0131C19.5752 18.1174 22.0918 20.634 25.1961 20.634Z" fill="white" stroke="black" stroke-width="0.784313" stroke-linecap="round" stroke-linejoin="round"/>
<path d="M26.3727 17.4967C27.3112 17.4967 28.072 16.7359 28.072 15.7974C28.072 14.8589 27.3112 14.098 26.3727 14.098C25.4342 14.098 24.6733 14.8589 24.6733 15.7974C24.6733 16.7359 25.4342 17.4967 26.3727 17.4967Z" fill="black"/>
<path d="M13.9544 20.634C17.0588 20.634 19.5753 18.1174 19.5753 15.0131C19.5753 11.9087 17.0588 9.39215 13.9544 9.39215C10.8501 9.39215 8.3335 11.9087 8.3335 15.0131C8.3335 18.1174 10.8501 20.634 13.9544 20.634Z" fill="white" stroke="black" stroke-width="0.784313" stroke-linecap="round" stroke-linejoin="round"/>
<path d="M15.7188 17.4967C16.6934 17.4967 17.4835 16.7359 17.4835 15.7974C17.4835 14.8588 16.6934 14.098 15.7188 14.098C14.7442 14.098 13.9541 14.8588 13.9541 15.7974C13.9541 16.7359 14.7442 17.4967 15.7188 17.4967Z" fill="black"/>
</g>
</svg>
